# xmcd
#
# Track frame offsets:
#	150
#	15701
#	32720
#	48835
#	64465
#	78306
#	94231
#	109816
#	124410
#	139520
#	156092
#
# Disc length: 2307 seconds
#
# Revision: 1
# Processed by: cddbd v1.5.2PL0 Copyright (c) Steve Scherf et al.
# Submitted via: audiograbber 1.83.01
#
DISCID=9009010b
DTITLE=Lee Kernaghan - Beautiful Noise
DYEAR=2012
DGENRE=Country
TTITLE0=Beautiful Noise
TTITLE1=Dirt Music
TTITLE2=Bang Bang (Shooting From The Heart)
TTITLE3=Keeping On
TTITLE4=Ute Me
TTITLE5=Splash
TTITLE6=Flying With The King
TTITLE7=It's Only Country
TTITLE8=New Kind Of High (featuring Robby K)
TTITLE9=Party Town
TTITLE10=Peace Love and Country
EXTD=
EXTT0=
EXTT1=
EXTT2=
EXTT3=
EXTT4=
EXTT5=
EXTT6=
EXTT7=
EXTT8=
EXTT9=
EXTT10=
PLAYORDER=
